<?xml version="1.0" encoding="UTF-8" standalone="no"?>
<svg width="5760" height="3600" viewBox="0 0 5760 3600" version="1.1" xml:space="preserve" style="clip-rule:evenodd;fill-rule:evenodd;stroke-linejoin:round;stroke-miterlimit:2" id="svg164" xmlns:xlink="http://www.w3.org/1999/xlink" xmlns="http://www.w3.org/2000/svg" xmlns:svg="http://www.w3.org/2000/svg"><defs id="defs164"><linearGradient id="linearGradient192"><stop style="stop-color:#644a52;stop-opacity:0.65972221;" offset="0" id="stop205"/><stop style="stop-color:#644a52;stop-opacity:0;" offset="1" id="stop206"/></linearGradient><linearGradient id="linearGradient195"><stop style="stop-color:#dd4b60;stop-opacity:0.25694445;" offset="0" id="stop194"/><stop style="stop-color:#dd4b60;stop-opacity:0;" offset="1" id="stop195"/></linearGradient><linearGradient id="linearGradient192-1"><stop style="stop-color:#c592c6;stop-opacity:0.65972221;" offset="0" id="stop191"/><stop style="stop-color:#cb76ba;stop-opacity:0;" offset="1" id="stop192"/></linearGradient><linearGradient xlink:href="#linearGradient192" id="linearGradient193" x1="5770.4531" y1="1628.3325" x2="1873.5294" y2="1834.5485" gradientUnits="userSpaceOnUse"/><linearGradient xlink:href="#linearGradient195" id="linearGradient194" gradientUnits="userSpaceOnUse" x1="5770.4531" y1="1628.3325" x2="3291.4829" y2="1737.7742"/><linearGradient xlink:href="#linearGradient192-1" id="linearGradient206" gradientUnits="userSpaceOnUse" x1="5770.4531" y1="1628.3325" x2="1873.5294" y2="1834.5485"/></defs>
    
    
    <g id="BG" transform="translate(-11.900823,77.355369)" clip-path="none" style="display:none">
        <rect x="2549.1321" y="-312.10236" width="1719.099" height="3972.02" style="clip-rule:evenodd;fill:#a25289;fill-rule:evenodd;stroke-width:1.19407;stroke-linejoin:round;stroke-miterlimit:2" id="rect1"/>
        <path d="m 2755.6509,3807.1646 c 157.45,-168.64 48.15,-465.42 136.52,-678.54 109.03,-262.93 429.71,-568.78 517.67,-899.07 87.97,-330.28 98.6549,-745.5424 7.2916,-1100.9948 -87.8355,-341.727 -500.5916,-606.05317 -516.5516,-923.90817 -15.95,-317.854 584.8,-765.868 423.67,-964.83701 -161.12,-198.969 -926.07,-299.78102 -1390.42,-228.978 -785.9701,119.842 -2776.03603,175.832 -3325.41,948.033011 -549.37,772.201999 -435.12,2889.474969 29.17,3685.174969 464.29397,795.7 2070.24592,1061.84 2756.59,1089.02 548.4,21.73 1111.81,-658.49 1361.47,-925.9 z" style="fill:#77547d" id="path1"/>
        <path d="m -529.18818,2825.6746 c 110.98,378.32 705.791,385.82 1061.02,522.73 345.636,133.21 767.49898,322.56 1070.35908,298.7 288.33,-22.71 538.2,-241.44 746.75,-441.83 246.2,-236.56 607.44,-626.54 730.43,-977.53 122.99,-350.99 126.37,-799.25 7.52,-1128.44 -118.86,-329.17697 -575.83,-563.64097 -720.64,-846.64697 -131.21,-256.4419987 37.24,-747.115 -148.18,-851.383 -185.43,-104.267 -655.69,108.675 -964.3701,225.778 -337.04798,127.863 -775.28297,474.503 -1057.91098,541.4 -211.827997,50.139 -580.56,-350.022 -637.856,-140.016999 -120.83,442.868999 -249.43795,2243.908969 -87.122,2797.238969 z" style="fill:#664b65" id="path2"/>
        <path d="m -482.51618,1406.8246 c 88.296,-228.57 355.433,-376.49 613.292,-519.90897 138.238,-76.885 565.386,-508.486 841.218,-615.784 252.95698,-98.398 587.35708,-94.866 813.76708,-28.003 361.92,106.877 631.25,870.95597 696.2,1279.60597 63.4,398.88 -104.95,923.81 -306.48,1172.25 -201.01,247.8 -584.68,342.25 -902.7001,318.4 -318.01998,-23.86 -730.60698,-215.64 -1005.42598,-461.53 -131.581,-117.73 -541.374,-102.67 -666.353,-293.51 -124.978,-190.84 -171.813,-622.95 -83.518,-851.52 z" style="fill:#54414c" id="path3"/>
        <path d="m 3915.4309,3894.9946 c -213.34,-181.42 -341.96,-486.64 -343.54,-766.68 -1.63,-287.19 331.63,-618.79 333.79,-956.47 2.16,-337.99 -223.5433,-711.5798 -320.85,-1071.49 -73.4635,-271.72105 -248.29,-568.76197 -198.39,-820.79497 49.91,-252.032999 224.97,-612.661 497.83,-691.405 515.35,-148.724 2049.08,-692.52003 2594.25,-200.94 545.17,491.574 676.75,2327.13997 676.75,3150.38997 0,637.61 -327.35,1479.9 -676.75,1789.11 -349.39,309.2 -992.43,138.07 -1419.62,66.12 -409.94,-69.05 -895.64,-287.09 -1143.47,-497.84 z" style="fill:#cc4a92" id="path4"/>
        <path d="m 4619.5609,3847.0146 c -204.35,-41.67 -388.44,-264.07 -411.42,-471.35 -29.76,-268.43 270.02,-801.93 232.88,-1139.25 -36.31,-329.72 -353.14,-569.21 -455.74,-884.66 -102.61,-315.49 -265.93,-736.49097 -159.93,-1008.27997 106,-271.788999 465.02,-559.68 795.92,-622.455 385.44,-73.12 1171.39,-190.579 1516.7,183.734001 357.15,387.147999 593.13,1488.330969 626.19,2139.150969 30.72,604.84 -70.4,1465.26 -427.83,1765.77 -357.44,300.52 -1362.07,109.68 -1716.77,37.34 z" style="fill:#d54b79" id="path5"/>
        <path d="m 5724.5709,3115.2646 c -108.53,73.33 -313.6,29.43 -384.56,-80.66 -104.07,-161.43 -110.1,-662.86 -239.85,-887.96 -118.19,-205.05 -401.91,-269.42 -538.63,-462.61 -150.11,-212.11 -336.95,-554.73 -362.02,-810.04997 -24.51,-249.545 29.69,-626.837 211.58,-721.867 181.89,-95.029999 628.56,-7.841 879.77,151.685 271.74,172.559 614.96,521.782 750.65,883.66197 137.81,367.55 129.06,1000.31 76.23,1321.61 -39.07,237.66 -263.55,518.6 -393.17,606.19 z" style="fill:#dd4b60" id="path6"/>
    
    
</g><g id="g194" transform="translate(-11.900823,77.355369)" clip-path="none" style="clip-rule:evenodd;display:inline;fill-rule:evenodd;stroke-linejoin:round;stroke-miterlimit:2">
        <rect x="2549.1321" y="-312.10236" width="1719.099" height="3972.02" style="clip-rule:evenodd;fill:#77547d;fill-opacity:1;fill-rule:evenodd;stroke-width:1.19407;stroke-linejoin:round;stroke-miterlimit:2" id="rect189"/>
        <path d="m 2755.6509,3807.1646 c 157.45,-168.64 48.15,-465.42 136.52,-678.54 109.03,-262.93 429.71,-568.78 517.67,-899.07 87.97,-330.28 98.6549,-745.5424 7.2916,-1100.9948 -87.8355,-341.727 -500.5916,-606.05317 -516.5516,-923.90817 -15.95,-317.854 584.8,-765.868 423.67,-964.83701 -161.12,-198.969 -926.07,-299.78102 -1390.42,-228.978 -785.9701,119.842 -2776.03603,175.832 -3325.41,948.033011 -549.37,772.201999 -435.12,2889.474969 29.17,3685.174969 464.29397,795.7 2070.24592,1061.84 2756.59,1089.02 548.4,21.73 1111.81,-658.49 1361.47,-925.9 z" style="fill:#6e4f71;fill-opacity:1" id="path189"/>
        <path d="m -529.18818,2825.6746 c 110.98,378.32 705.791,385.82 1061.02,522.73 345.636,133.21 767.49898,322.56 1070.35908,298.7 288.33,-22.71 538.2,-241.44 746.75,-441.83 246.2,-236.56 607.44,-626.54 730.43,-977.53 122.99,-350.99 126.37,-799.25 7.52,-1128.44 -118.86,-329.17697 -575.83,-563.64097 -720.64,-846.64697 -131.21,-256.4419987 37.24,-747.115 -148.18,-851.383 -185.43,-104.267 -655.69,108.675 -964.3701,225.778 -337.04798,127.863 -775.28297,474.503 -1057.91098,541.4 -211.827997,50.139 -580.56,-350.022 -637.856,-140.016999 -120.83,442.868999 -249.43795,2243.908969 -87.122,2797.238969 z" style="fill:#634960;fill-opacity:1" id="path190"/>
        <path d="m -482.51618,1406.8246 c 88.296,-228.57 355.433,-376.49 613.292,-519.90897 138.238,-76.885 565.386,-508.486 841.218,-615.784 252.95698,-98.398 587.35708,-94.866 813.76708,-28.003 361.92,106.877 631.25,870.95597 696.2,1279.60597 63.4,398.88 -104.95,923.81 -306.48,1172.25 -201.01,247.8 -584.68,342.25 -902.7001,318.4 -318.01998,-23.86 -730.60698,-215.64 -1005.42598,-461.53 -131.581,-117.73 -541.374,-102.67 -666.353,-293.51 -124.978,-190.84 -171.813,-622.95 -83.518,-851.52 z" style="fill:#54414c" id="path191"/>
        <path d="m 3915.4309,3894.9946 c -213.34,-181.42 -341.96,-486.64 -343.54,-766.68 -1.63,-287.19 331.63,-618.79 333.79,-956.47 2.16,-337.99 -223.5433,-711.5798 -320.85,-1071.49 -73.4635,-271.72105 -248.29,-568.76197 -198.39,-820.79497 49.91,-252.032999 224.97,-612.661 497.83,-691.405 515.35,-148.724 2049.08,-692.52003 2594.25,-200.94 545.17,491.574 676.75,2327.13997 676.75,3150.38997 0,637.61 -327.35,1479.9 -676.75,1789.11 -349.39,309.2 -992.43,138.07 -1419.62,66.12 -409.94,-69.05 -895.64,-287.09 -1143.47,-497.84 z" style="fill:#805480;fill-opacity:1" id="path192"/>
        <path d="m 4619.5609,3847.0146 c -204.35,-41.67 -388.44,-264.07 -411.42,-471.35 -29.76,-268.43 270.02,-801.93 232.88,-1139.25 -36.31,-329.72 -353.14,-569.21 -455.74,-884.66 -102.61,-315.49 -265.93,-736.49097 -159.93,-1008.27997 106,-271.788999 465.02,-559.68 795.92,-622.455 385.44,-73.12 1171.39,-190.579 1516.7,183.734001 357.15,387.147999 593.13,1488.330969 626.19,2139.150969 30.72,604.84 -70.4,1465.26 -427.83,1765.77 -357.44,300.52 -1362.07,109.68 -1716.77,37.34 z" style="fill:#915384;fill-opacity:1" id="path193"/>
        <path d="m 5724.5709,3115.2646 c -108.53,73.33 -313.6,29.43 -384.56,-80.66 -104.07,-161.43 -110.1,-662.86 -239.85,-887.96 -118.19,-205.05 -401.91,-269.42 -538.63,-462.61 -150.11,-212.11 -336.95,-554.73 -362.02,-810.04997 -24.51,-249.545 29.69,-626.837 211.58,-721.867 181.89,-95.029999 628.56,-7.841 879.77,151.685 271.74,172.559 614.96,521.782 750.65,883.66197 137.81,367.55 129.06,1000.31 76.23,1321.61 -39.07,237.66 -263.55,518.6 -393.17,606.19 z" style="fill:#a25289;fill-opacity:1" id="path194"/>
    
    
</g><g id="g204" transform="translate(-11.900823,77.355369)" clip-path="none" style="clip-rule:evenodd;display:none;fill-rule:evenodd;stroke-linejoin:round;stroke-miterlimit:2">
        <rect x="2549.1321" y="-312.10236" width="1719.099" height="3972.02" style="clip-rule:evenodd;fill:#dd9cc9;fill-opacity:1;fill-rule:evenodd;stroke-width:1.19407;stroke-linejoin:round;stroke-miterlimit:2" id="rect199"/>
        <path d="m 2755.6509,3807.1646 c 157.45,-168.64 48.15,-465.42 136.52,-678.54 109.03,-262.93 429.71,-568.78 517.67,-899.07 87.97,-330.28 98.6549,-745.5424 7.2916,-1100.9948 -87.8355,-341.727 -500.5916,-606.05317 -516.5516,-923.90817 -15.95,-317.854 584.8,-765.868 423.67,-964.83701 -161.12,-198.969 -926.07,-299.78102 -1390.42,-228.978 -785.9701,119.842 -2776.03603,175.832 -3325.41,948.033011 -549.37,772.201999 -435.12,2889.474969 29.17,3685.174969 464.29397,795.7 2070.24592,1061.84 2756.59,1089.02 548.4,21.73 1111.81,-658.49 1361.47,-925.9 z" style="fill:#e1abcf;fill-opacity:1" id="path199"/>
        <path d="m -529.18818,2825.6746 c 110.98,378.32 705.791,385.82 1061.02,522.73 345.636,133.21 767.49898,322.56 1070.35908,298.7 288.33,-22.71 538.2,-241.44 746.75,-441.83 246.2,-236.56 607.44,-626.54 730.43,-977.53 122.99,-350.99 126.37,-799.25 7.52,-1128.44 -118.86,-329.17697 -575.83,-563.64097 -720.64,-846.64697 -131.21,-256.4419987 37.24,-747.115 -148.18,-851.383 -185.43,-104.267 -655.69,108.675 -964.3701,225.778 -337.04798,127.863 -775.28297,474.503 -1057.91098,541.4 -211.827997,50.139 -580.56,-350.022 -637.856,-140.016999 -120.83,442.868999 -249.43795,2243.908969 -87.122,2797.238969 z" style="fill:#e3b9d6;fill-opacity:1" id="path200"/>
        <path d="m -482.51618,1406.8246 c 88.296,-228.57 355.433,-376.49 613.292,-519.90897 138.238,-76.885 565.386,-508.486 841.218,-615.784 252.95698,-98.398 587.35708,-94.866 813.76708,-28.003 361.92,106.877 631.25,870.95597 696.2,1279.60597 63.4,398.88 -104.95,923.81 -306.48,1172.25 -201.01,247.8 -584.68,342.25 -902.7001,318.4 -318.01998,-23.86 -730.60698,-215.64 -1005.42598,-461.53 -131.581,-117.73 -541.374,-102.67 -666.353,-293.51 -124.978,-190.84 -171.813,-622.95 -83.518,-851.52 z" style="fill:#e5c4db;fill-opacity:0.501961" id="path201"/>
        <path d="m 3915.4309,3894.9946 c -213.34,-181.42 -341.96,-486.64 -343.54,-766.68 -1.63,-287.19 331.63,-618.79 333.79,-956.47 2.16,-337.99 -223.5433,-711.5798 -320.85,-1071.49 -73.4635,-271.72105 -248.29,-568.76197 -198.39,-820.79497 49.91,-252.032999 224.97,-612.661 497.83,-691.405 515.35,-148.724 2049.08,-692.52003 2594.25,-200.94 545.17,491.574 676.75,2327.13997 676.75,3150.38997 0,637.61 -327.35,1479.9 -676.75,1789.11 -349.39,309.2 -992.43,138.07 -1419.62,66.12 -409.94,-69.05 -895.64,-287.09 -1143.47,-497.84 z" style="fill:#d798ce;fill-opacity:1" id="path202"/>
        <path d="m 4619.5609,3847.0146 c -204.35,-41.67 -388.44,-264.07 -411.42,-471.35 -29.76,-268.43 270.02,-801.93 232.88,-1139.25 -36.31,-329.72 -353.14,-569.21 -455.74,-884.66 -102.61,-315.49 -265.93,-736.49097 -159.93,-1008.27997 106,-271.788999 465.02,-559.68 795.92,-622.455 385.44,-73.12 1171.39,-190.579 1516.7,183.734001 357.15,387.147999 593.13,1488.330969 626.19,2139.150969 30.72,604.84 -70.4,1465.26 -427.83,1765.77 -357.44,300.52 -1362.07,109.68 -1716.77,37.34 z" style="fill:#cd90d8;fill-opacity:1" id="path203"/>
        <path d="m 5724.5709,3115.2646 c -108.53,73.33 -313.6,29.43 -384.56,-80.66 -104.07,-161.43 -110.1,-662.86 -239.85,-887.96 -118.19,-205.05 -401.91,-269.42 -538.63,-462.61 -150.11,-212.11 -336.95,-554.73 -362.02,-810.04997 -24.51,-249.545 29.69,-626.837 211.58,-721.867 181.89,-95.029999 628.56,-7.841 879.77,151.685 271.74,172.559 614.96,521.782 750.65,883.66197 137.81,367.55 129.06,1000.31 76.23,1321.61 -39.07,237.66 -263.55,518.6 -393.17,606.19 z" style="fill:#c288e2;fill-opacity:1" id="path204"/>
    
    
</g><g transform="matrix(3.7190137,0,0,3.7190137,-1366.1959,-832.70597)" id="g189" style="clip-rule:evenodd;display:inline;fill-rule:evenodd;stroke-linejoin:round;stroke-miterlimit:2">
            
            
            
            
            
            
            
            
            
            
            
            
            
            
            
            
            
            
            
            
            
            
            
            
            
            
            
            
            
            
            
            
            
            
            
            
            
            
            
            
            
            
            
            
            
            
            
            <g id="g191" clip-path="none" style="display:inline"><g id="g170" transform="translate(0,13.982202)" style="display:inline"><path d="m 509.04541,867.78605 46.97001,-1.68795 c 6.30877,44.29386 40.95593,78.07475 83.62909,81.85346 l 0.85501,47.88108 -129.88755,7.29286 z m 280.34605,119.68663 -124.01087,6.96294 -0.90914,-47.69693 c 37.44503,-7.01972 67.04355,-36.92363 75.77431,-74.52125 l 46.21309,-1.75175 z m -166.40039,-280.66139 0.85283,49.43416 c -36.15922,10.94031 -63.64759,43.7747 -68.19086,83.70788 l -46.91241,1.50147 -1.54226,-133.2402 z m 98.13593,145.69308 64.82521,-2.25308 -0.69497,-27.72823 -91.26275,2.77771 0.47424,23.00723 c 0.52472,25.45654 -18.8162,46.98273 -43.32958,47.98931 -24.698,1.01417 -45.22927,-19.15827 -45.64939,-44.96671 -0.41907,-25.74376 19.34418,-47.13855 43.93691,-47.80037 l 22.12097,-0.5953 -1.88929,-96.68921 -26.93624,0.32645 1.25831,69.06536 c -37.35442,3.49587 -66.76093,36.75783 -66.16556,76.63319 0.62394,41.78869 33.91543,74.35349 73.85065,72.53989 37.8077,-1.71699 67.81131,-33.69209 69.46149,-72.30624 z" style="font-variation-settings:normal;display:inline;opacity:1;vector-effect:none;fill:#f1f1f1;fill-opacity:1;stroke-width:1.5;stroke-linecap:butt;stroke-linejoin:miter;stroke-miterlimit:2;stroke-dasharray:none;stroke-dashoffset:0;stroke-opacity:1;-inkscape-stroke:none;stop-color:#000000;stop-opacity:1" id="path1-4"/><path d="m 509.04541,867.78607 46.97001,-1.68795 c 6.30877,44.29386 40.95593,78.07475 83.62909,81.85346 l 0.85501,47.88106 -129.88755,7.29286 z m 280.34605,119.68661 -124.01087,6.96294 -0.90914,-47.69691 c 37.44503,-7.01972 67.04355,-36.92364 75.77431,-74.52125 l 46.21309,-1.75175 z m -166.40039,-280.66137 0.85283,49.43416 c -36.15922,10.94031 -63.64759,43.7747 -68.19086,83.70788 l -46.91241,1.50147 -1.54226,-133.2402 z m 98.13593,145.69308 64.82521,-2.25308 -0.69497,-27.72823 -91.26275,2.77771 0.47424,23.00722 c 0.52472,25.45655 -18.8162,46.98274 -43.32958,47.98932 -24.698,1.01416 -45.22927,-19.15827 -45.64939,-44.96671 -0.41907,-25.74376 19.34418,-47.13855 43.93691,-47.80037 l 22.12097,-0.5953 -1.88929,-96.68921 -26.93624,0.32645 1.25831,69.06536 c -37.35442,3.49587 -66.76093,36.75783 -66.16556,76.63318 0.62394,41.78869 33.91544,74.3535 73.85065,72.5399 37.8077,-1.71699 67.81131,-33.69209 69.46149,-72.30624 z" style="clip-rule:evenodd;display:none;fill:#473434;fill-opacity:1;fill-rule:evenodd;stroke-width:1.5;stroke-linejoin:round;stroke-miterlimit:2" id="path1-4-7"/><g id="g199"><path id="rect1-1" d="m 349.39944,397.60988 135.36093,4.52581 1.41307,132.872 -136.24542,-1.86384 z" style="fill:#d64f5d;fill-opacity:1"/><path id="rect2" d="m 350.00411,552.65526 136.37272,1.47771 1.43459,134.89631 -137.27052,1.26702 z" style="fill:#d45c92;fill-opacity:1"/><path id="rect5" d="M 348.21747,94.535535 481.59919,104.88592 482.97063,233.84363 348.73017,225.998 Z" style="fill:#d64f5d;fill-opacity:1"/><path id="rect6" d="m 348.80397,244.92107 134.36404,7.48236 1.39201,130.89291 -135.23551,-4.90033 z" style="fill:#d45c92;fill-opacity:1"/><path id="rect13" d="m 350.61818,710.11222 137.39974,-1.66517 1.45661,136.96724 -138.31115,4.49554 z" style="fill:#d64f5d;fill-opacity:1"/><path id="rect14" d="m 351.24188,870.03745 138.44234,-4.90615 1.47915,139.0862 -139.36768,7.8252 z" style="fill:#d45c92;fill-opacity:1"/><path id="rect17" d="m 351.87543,1032.4894 139.50088,-8.2486 1.50221,141.2547 -140.44046,11.2596 z" style="fill:#d64f5d;fill-opacity:1"/><path id="rect25" d="m 651.14114,407.69867 123.82292,4.14004 3.18715,127.16324 -124.5595,-1.70398 z" style="fill:#d64f5d;fill-opacity:1"/><path id="rect26" d="m 653.94437,555.9487 124.66545,1.35085 3.23358,129.0158 -125.41206,1.15756 z" style="fill:#d45c92;fill-opacity:1"/><path id="rect27" d="m 505.41727,554.33929 130.32211,1.41215 2.37534,131.89053 -131.14046,1.21044 z" style="fill:#f786f3;fill-opacity:1"/><path id="rect28" d="m 503.66283,402.7677 129.39924,4.32649 2.34048,129.95495 -130.20603,-1.78121 z" style="fill:#ab76e4;fill-opacity:1"/><path id="rect29" d="m 645.65604,117.61669 122.1714,9.48046 3.09724,123.57586 -122.88851,-7.18218 z" style="fill:#d64f5d;fill-opacity:1"/><path id="rect30" d="m 648.37866,261.60354 122.99164,6.84906 3.14172,125.3503 -123.7184,-4.483 z" style="fill:#d45c92;fill-opacity:1"/><path id="rect31" d="m 501.93446,253.44848 128.48932,7.15521 2.30638,128.06167 -129.28479,-4.6847 z" style="fill:#f786f3;fill-opacity:1"/><path id="rect32" d="m 500.23158,106.33179 127.59209,9.90111 2.27302,126.20946 -128.37648,-7.50291 z" style="fill:#ab76e4;fill-opacity:1"/><path id="rect37" d="m 662.60776,1014.1159 127.26286,-7.5251 3.37914,134.823 -128.04084,10.2655 z" style="fill:#d64f5d;fill-opacity:1"/><path id="rect38" d="m 665.58334,1171.4805 128.15275,-10.6627 3.42984,136.8461 -128.94161,13.4858 z" style="fill:#d45c92;fill-opacity:1"/><path id="rect39" d="m 512.70791,1184.2003 134.14879,-11.1617 2.52287,140.082 -135.01596,14.1211 z" style="fill:#f786f3"/><path id="rect40" d="m 510.84305,1023.0897 133.17125,-7.8744 2.48473,137.964 -134.02581,10.7453 z" style="fill:#ab76e4;fill-opacity:1"/><path id="rect45" d="m 927.45772,416.93736 113.69968,3.80157 4.668,121.9248 -114.31504,-1.56383 z" style="fill:#cd4e5c;fill-opacity:1"/><path id="rect46" d="m 932.0934,558.96267 114.4035,1.23966 4.7332,123.62657 -115.02644,1.0617 z" style="fill:#cb5a8d;fill-opacity:1"/><path id="rect47" d="m 796.03317,557.48835 119.36924,1.29346 4.0172,126.26371 -120.05097,1.10807 z" style="fill:#f786f3;fill-opacity:1"/><path id="rect48" d="m 792.2724,412.41742 118.59945,3.96539 3.96074,124.48894 -119.27248,-1.63165 z" style="fill:#ab76e4;fill-opacity:1"/><path id="rect49" d="m 918.37872,138.77989 112.31718,8.71579 4.5417,118.625 -112.91791,-6.59945 z" style="fill:#cc4e5c;fill-opacity:1"/><path id="rect50" d="m 922.88661,276.89011 113.00429,6.29289 4.6042,120.25793 -113.61227,-4.1168 z" style="fill:#cb5a8d;fill-opacity:1"/><path id="rect51" d="m 788.56514,269.41013 117.83942,6.56214 3.90545,122.75134 -118.50392,-4.29405 z" style="fill:#f786f3;fill-opacity:1"/><path id="rect52" d="m 784.91024,128.42277 117.08897,9.08608 3.85132,121.04985 -117.74509,-6.88157 z" style="fill:#aa76e3;fill-opacity:1"/><path id="rect57" d="m 936.79502,703.00825 115.11598,-1.39511 4.7997,125.36422 -115.74656,3.76212 z" style="fill:#ce4e5c;fill-opacity:1"/><path id="rect58" d="m 941.564,849.11751 115.8372,-4.10506 4.8677,127.13877 -116.47565,6.53985 z" style="fill:#cc5b8d;fill-opacity:1"/><path id="rect59" d="m 803.71989,854.00246 120.93889,-4.28586 4.13381,129.92902 -121.63853,6.82973 z" style="fill:#f786f3;fill-opacity:1"/><path id="rect60" d="m 799.84859,704.66793 120.149,-1.45611 4.07488,128.0767 -120.83959,3.92765 z" style="fill:#ab76e4;fill-opacity:1"/><path id="rect61" d="m 946.40179,997.33513 116.56741,-6.89263 4.937,128.9513 -117.21371,9.3974 z" style="fill:#cd4e5c;fill-opacity:1"/><path id="rect62" d="m 951.3099,1147.7071 117.3067,-9.7604 5.0079,130.8028 -117.96111,12.3374 z" style="fill:#cb5b8d;fill-opacity:1"/><path id="rect63" d="m 811.63504,1159.3285 122.54992,-10.1966 4.25559,133.7563 -123.26818,12.8924 z" style="fill:#f786f3;fill-opacity:1"/><path id="rect64" d="m 807.64828,1005.5396 121.73913,-7.19841 4.19404,131.82181 -122.44799,9.817 z" style="fill:#ab76e4;fill-opacity:1"/><path id="rect69" d="m 1181.4328,425.42907 104.769,3.50297 5.9075,117.10086 -105.2844,-1.44029 z" style="fill:#bb4e5a;fill-opacity:1"/><path id="rect70" d="m 1187.6004,561.7313 105.3585,1.14164 5.9866,118.66953 -105.8795,0.97727 z" style="fill:#b95783;fill-opacity:1"/><path id="rect71" d="m 1062.5008,560.37574 109.7413,1.18914 5.3878,121.09734 -110.3109,1.01818 z" style="fill:#df7cda;fill-opacity:1"/><path id="rect72" d="m 1057.0651,421.27081 109.0974,3.64769 5.3152,119.46416 -109.6605,-1.50016 z" style="fill:#9f6fcb;fill-opacity:1"/><path id="rect73" d="m 1169.3433,158.25467 103.609,8.04003 5.7538,114.05541 -104.1134,-6.08487 z" style="fill:#bb4e5a;fill-opacity:1"/><path id="rect74" d="m 1175.3477,290.94896 104.1858,5.80181 5.8299,115.56309 -104.6957,-3.7937 z" style="fill:#b95783;fill-opacity:1"/><path id="rect75" d="m 1051.7036,284.06357 108.4608,6.03987 5.2439,117.86379 -109.0174,-3.95031 z" style="fill:#df7cda;fill-opacity:1"/><path id="rect76" d="m 1046.4147,148.71545 107.8314,8.36768 5.1741,116.29536 -108.3817,-6.33433 z" style="fill:#a06ecc;fill-opacity:1"/><path id="rect81" d="m 1193.8521,699.89294 105.9544,-1.28408 6.0674,120.26993 -106.4811,3.46096 z" style="fill:#bb4d5a;fill-opacity:1"/><path id="rect82" d="m 1200.1898,839.95229 106.5567,-3.77617 6.1497,121.90293 -107.0892,6.01282 z" style="fill:#b95783;fill-opacity:1"/><path id="rect83" d="m 1073.6008,844.43837 111.0517,-3.93547 5.5377,124.46582 -111.6346,6.26804 z" style="fill:#e07dda;fill-opacity:1"/><path id="rect84" d="m 1068.0121,701.41801 110.3928,-1.33787 5.462,122.76426 -110.969,3.60683 z" style="fill:#9f6ecd;fill-opacity:1"/><path id="rect85" d="m 1206.615,981.94873 107.1657,-6.3367 6.2339,123.56937 -107.7041,8.635 z" style="fill:#bb4e5a;fill-opacity:1"/><path id="rect86" d="m 1213.1298,1125.9227 107.7814,-8.9678 6.3197,125.2703 -108.3259,11.3297 z" style="fill:#ba5883;fill-opacity:1"/><path id="rect87" d="m 1085.0166,1136.5822 112.3929,-9.3515 5.6939,127.9768 -112.9896,11.8174 z" style="fill:#e07dda;fill-opacity:1"/><path id="rect88" d="m 1079.2684,989.47873 111.7184,-6.6059 5.615,126.20297 -112.3082,9.0041 z" style="fill:#a06fce;fill-opacity:1"/><path id="rect93" d="m 1415.6707,433.26085 96.8507,3.23822 6.947,112.6441 -97.2832,-1.33083 z" style="fill:#af4c59;fill-opacity:1"/><path id="rect94" d="m 1423.1219,564.28336 97.3452,1.05482 7.0364,114.09469 -97.7817,0.90253 z" style="fill:#ad5477;fill-opacity:1"/><path id="rect95" d="m 1307.7099,563.03278 101.233,1.09694 6.5347,116.33715 -101.7099,0.93879 z" style="fill:#c971bd;fill-opacity:1"/><path id="rect96" d="m 1300.8723,429.42255 100.6931,3.36669 6.45,114.82925 -101.1652,-1.38394 z" style="fill:#9867b3;fill-opacity:1"/><path id="rect97" d="m 1401.0537,176.23534 95.8756,7.43992 6.7731,109.82468 -96.2999,-5.62821 z" style="fill:#af4d59;fill-opacity:1"/><path id="rect98" d="m 1408.3153,303.92226 96.3608,5.36607 6.8592,111.22099 -96.7892,-3.50721 z" style="fill:#ae5477;fill-opacity:1"/><path id="rect99" d="m 1294.1243,297.56329 100.1588,5.57756 6.3669,113.35048 -100.6261,-3.64624 z" style="fill:#ca71bd;fill-opacity:1"/><path id="rect100" d="m 1287.4641,167.42081 99.6298,7.73125 6.2855,111.90009 -100.0924,-5.84986 z" style="fill:#9767b2;fill-opacity:1"/><path id="rect105" d="m 1430.6708,697.02289 97.8444,-1.18579 7.1276,115.57349 -98.2851,3.19457 z" style="fill:#af4d59;fill-opacity:1"/><path id="rect106" d="m 1438.3192,831.51342 98.3485,-3.48529 7.2206,117.08122 -98.7934,5.54704 z" style="fill:#ad5477;fill-opacity:1"/><path id="rect107" d="m 1321.6612,835.64757 102.3292,-3.62636 6.7092,119.44344 -102.816,5.77289 z" style="fill:#c971bd;fill-opacity:1"/><path id="rect108" d="m 1314.6389,698.4291 101.7783,-1.23347 6.6211,117.87496 -102.2601,3.32376 z" style="fill:#9767b1;fill-opacity:1"/><path id="rect109" d="m 1446.0692,967.78982 98.8573,-5.84543 7.3155,118.61861 -99.3066,7.9618 z" style="fill:#af4d59;fill-opacity:1"/><path id="rect110" d="m 1453.9228,1105.8879 99.3711,-8.268 7.4121,120.1865 -99.8246,10.4405 z" style="fill:#ad5577;fill-opacity:1"/><path id="rect111" d="m 1335.9931,1115.7001 103.4482,-8.6073 6.8907,122.6758 -103.945,10.8715 z" style="fill:#ca71be;fill-opacity:1"/><path id="rect112" d="m 1328.7786,974.72521 102.8858,-6.08364 6.7991,121.04343 -103.3776,8.2881 z" style="fill:#9867b2;fill-opacity:1"/><path id="rect117" d="m 1632.3862,440.50678 89.7972,3.00238 7.8198,108.51413 -90.1605,-1.2334 z" style="fill:#a64b58;fill-opacity:1"/><path id="rect118" d="m 1640.9146,566.64332 90.2125,0.97753 7.9167,109.85949 -90.5787,0.83605 z" style="fill:#a5516e;fill-opacity:1"/><path id="rect119" d="m 1534.1069,565.48597 93.6771,1.01507 7.4959,111.93705 -94.077,0.86833 z" style="fill:#bb67a2;fill-opacity:1"/><path id="rect120" d="m 1526.0935,436.95286 93.224,3.11696 7.4024,110.54055 -93.6203,-1.28072 z" style="fill:#955e99;fill-opacity:1"/><path id="rect121" d="m 1615.6439,192.88748 88.9768,6.90457 7.6311,105.89649 -89.3341,-5.2211 z" style="fill:#a64c59;fill-opacity:1"/><path id="rect122" d="m 1623.9633,315.93109 89.3853,4.97762 7.7246,107.19332 -89.7456,-3.25198 z" style="fill:#a6516e;fill-opacity:1"/><path id="rect123" d="m 1518.1812,310.04039 92.7748,5.16637 7.3106,109.17002 -93.1676,-3.37597 z" style="fill:#bb67a2;fill-opacity:1"/><path id="rect124" d="m 1510.3681,184.7181 92.3295,7.16475 7.2205,107.82483 -92.7189,-5.41892 z" style="fill:#955f9b;fill-opacity:1"/><path id="rect129" d="m 1649.5506,694.37026 90.6312,-1.09838 8.0154,111.23004 -91.0004,2.95779 z" style="fill:#a64b58;fill-opacity:1"/><path id="rect130" d="m 1658.2961,823.71784 91.0533,-3.22676 8.1161,112.62638 -91.4255,5.13335 z" style="fill:#a4506d;fill-opacity:1"/><path id="rect131" d="m 1550.4445,827.5399 94.5955,-3.35229 7.6883,114.81062 -95.0024,5.33417 z" style="fill:#ba67a1;fill-opacity:1"/><path id="rect132" d="m 1542.2232,695.67097 94.1343,-1.14083 7.5911,113.36018 -94.5376,3.07276 z" style="fill:#955e98;fill-opacity:1"/><path id="rect133" d="m 1667.1533,954.71712 91.4789,-5.40914 8.2186,114.04922 -91.8541,7.3642 z" style="fill:#a64b58;fill-opacity:1"/><path id="rect134" d="m 1676.1244,1087.3999 91.9079,-7.647 8.3231,115.4991 -92.2863,9.6521 z" style="fill:#a5506d;fill-opacity:1"/><path id="rect135" d="m 1567.2103,1096.462 95.5303,-7.9485 7.8882,117.7963 -95.9444,10.0347 z" style="fill:#bb67a0;fill-opacity:1"/><path id="rect136" d="m 1558.7728,961.12566 95.0609,-5.62095 7.7873,116.28909 -95.4714,7.6542 z" style="fill:#955e98;fill-opacity:1"/><path id="rect141" d="m 1833.4744,447.2302 83.4873,2.79141 8.5529,104.67628 -83.7924,-1.14628 z" style="fill:#a04c58;fill-opacity:1"/><path id="rect142" d="m 1842.9076,568.83208 83.8361,0.90843 8.6551,105.92746 -84.1433,0.77665 z" style="fill:#a04f66;fill-opacity:1"/><path id="rect143" d="m 1743.7766,567.75792 86.9367,0.94203 8.3021,107.85765 -87.2721,0.80552 z" style="fill:#ad5e89;fill-opacity:1"/><path id="rect144" d="m 1734.7761,443.9302 86.5561,2.89402 8.2023,106.56066 -86.889,-1.18864 z" style="fill:#945986;fill-opacity:1"/><path id="rect149" d="m 1814.9438,208.35309 82.7966,6.425 8.3538,102.2395 -83.0976,-4.85661 z" style="fill:#a04c59;fill-opacity:1"/><path id="rect150" d="m 1824.1538,327.07914 83.1408,4.62988 8.4525,103.44712 -83.4439,-3.02363 z" style="fill:#9f4f66;fill-opacity:1"/><path id="rect151" d="m 1725.885,321.60682 86.1782,4.79903 8.1043,105.28691 -86.5087,-3.13468 z" style="fill:#ae5e8a;fill-opacity:1"/><path id="rect152" d="m 1717.1012,200.76053 85.8033,6.65832 8.0079,104.03587 -86.1313,-5.03391 z" style="fill:#955985;fill-opacity:1"/><path id="rect156" d="m 1909.3615,215.67988 79.9454,6.20374 8.6711,100.50408 -80.2215,-4.68851 z" style="fill:#94557a;fill-opacity:1"/><path id="rect165" d="m 1852.4553,691.91122 84.1873,-1.02028 8.7592,107.20122 -84.4965,2.7464 z" style="fill:#9f4b58;fill-opacity:1"/><path id="rect166" d="m 1862.1198,816.4947 84.5408,-2.99597 8.8652,108.49809 -84.8522,4.76426 z" style="fill:#9f4f66;fill-opacity:1"/><path id="rect167" d="m 1762.1138,820.03873 87.7065,-3.10816 8.5073,110.52371 -88.0469,4.94364 z" style="fill:#ad5d89;fill-opacity:1"/><path id="rect168" d="m 1752.8885,693.11789 87.3201,-1.05825 8.4038,109.17847 -87.658,2.84916 z" style="fill:#945886;fill-opacity:1"/><path id="rect173" d="m 1871.9031,942.61028 84.8968,-5.01995 8.973,109.81867 -85.2102,6.8315 z" style="fill:#a14c58;fill-opacity:1"/><path id="rect174" d="m 1881.8075,1070.2864 85.2551,-7.0935 9.0829,111.1634 -85.5706,8.9497 z" style="fill:#a04f67;fill-opacity:1"/><path id="rect175" d="m 1780.9134,1078.6811 88.4879,-7.3625 8.7202,113.2899 -88.8334,9.2909 z" style="fill:#ad5d89;fill-opacity:1"/><path id="rect176" d="m 1771.4547,948.54979 88.0957,-5.2091 8.6128,111.89391 -88.4386,7.0905 z" style="fill:#945986;fill-opacity:1"/></g></g><path id="rect191" d="M -0.00312397,63.832549 429.97875,88.962934 429.03286,-0.00282645 H -0.00312397 Z M 498.63356,-0.00282645 499.71025,93.037895 977.14592,120.93775 974.96738,-0.00282645 Z m 542.86804,0 2.3614,124.84118645 457.0174,26.70862 -3.7966,-151.54980645 z m 519.2517,0 4.0258,155.29061645 437.8921,25.59001 -5.7523,-180.88062645 z m 497.1512,0 6.0214,184.46162645 419.9436,24.54404 -8.0043,-209.00566645 z m 476.4251,0 8.3033,212.43411645 403.0696,23.56344 -10.499,-235.99755645 z m 456.9725,0 10.825,239.29528645 387.2058,22.6264 -13.2136,-261.92168645 z m 438.6895,0 13.5649,265.08865645 372.2428,21.76206 -16.1116,-286.85071645 z m 421.4725,0 16.4884,289.89421645 358.144,20.93395 -19.1703,-310.82816645 z m 405.2606,0 19.5639,313.76269645 344.8225,20.1495 -22.3612,-333.91219645 z m 389.9667,0 22.7669,336.73779645 332.2344,19.41585 -25.6645,-356.15364645 z m 375.5136,0 26.0839,358.87752645 320.322,18.72583 -29.0643,-377.60335645 z m 361.8509,0 29.4956,380.22555645 309.0415,18.06481 -31.0672,-380.232807 -232.744,-18.05755945 z M 5760.0007,328.34442 V 23.370199 l -25.2559,-1.959652 z M -0.00312397,628.9862 435.89142,644.78116 430.7124,157.98262 -0.00312397,133.99691 Z m 0,573.9667 L 441.89123,1208.9962 436.63232,714.83953 -0.00312397,700.24176 Z M 5760.0007,1281.7452 V 892.83037 l -307.4795,-10.27931 30.6748,395.40664 z M -0.00312397,1785.941 447.97821,1781.8042 442.64664,1280.1223 -0.00312397,1275.3233 Z M 5760.0007,1732.7745 v -395.0347 l -272.3958,-2.9509 31.0452,400.2153 z m 0,56.8749 -236.8908,2.8688 31.4298,405.1037 205.461,-6.6774 z M -0.00312397,1859.4548 v 518.7103 L 454.16688,2363.4013 448.74816,1854.0199 Z M 5760.0007,2248.7261 l -200.9502,7.1216 31.815,410.0866 169.1352,-9.4993 z M -0.00312397,2452.8513 v 526.9959 L 460.44996,2953.9907 454.94408,2436.7283 Z M 5760.0007,2715.1422 l -164.5664,9.7298 32.2074,415.1568 132.359,-10.6123 z M -0.00312397,3055.7293 v 535.4826 L 466.82751,3553.7907 461.2417,3028.4584 Z M 5760.0007,3189.0792 l -127.7322,10.6279 31.0533,400.2953 h 96.6789 z m -476.125,410.9232 h 332.7725 l -30.5185,-396.4599 -329.0817,27.3842 z m -393.7819,0 h 345.3567 l -26.3068,-365.0952 -341.8078,28.4445 z m -408.9268,0 h 358.6584 l -22.2678,-332.5103 -355.2748,29.5561 z m -424.9711,0 h 372.744 l -18.4179,-298.6469 -369.5625,30.747 z m -441.9751,0 h 387.6815 l -14.796,-263.4181 -384.729,32.011 z m -460.0229,0 h 403.5326 l -11.4363,-226.7364 -400.8471,33.3477 z m -479.1977,0 h 420.3756 l -8.3868,-188.522 -417.9971,34.7787 z m -499.5914,0 h 438.289 l -5.6917,-148.6661 -436.2651,36.2968 z m -521.3314,0 h 457.3824 l -3.4069,-107.0741 -455.768,37.9235 z m -544.5045,0 h 477.7416 l -1.5941,-63.6082 -476.6004,39.6525 z m -288.38053,0 h 218.61023 l -0.3269,-18.1592 z M 500.50199,161.87594 l 5.62211,485.4475 480.81327,17.42563 -8.57842,-476.26619 z m 544.63211,30.32596 8.978,474.98048 460.1117,16.67022 -11.6801,-466.17691 z m 521.352,29.033 12.0577,464.94934 440.7177,15.96561 -14.5274,-456.50892 z m 499.5463,27.81997 14.8615,455.33219 422.522,15.31189 -17.1205,-447.24044 z m 479.0699,26.67228 17.4329,446.11458 405.4379,14.6872 -19.5029,-438.33514 z m 459.836,25.61181 19.7862,437.24558 389.3633,14.1134 -21.6822,-429.7858 z m 441.7344,24.59488 21.9362,428.73979 374.2332,13.55409 -23.6797,-421.54874 z m 424.6723,23.65062 23.9192,420.54636 359.96,13.04559 -25.5102,-413.63134 z m 408.5972,22.75716 25.7281,412.65796 346.4857,12.55896 -27.1879,-406.00446 z m 393.4021,21.9073 27.3913,405.06741 333.7599,12.09405 -28.7279,-398.65357 z m 379.0489,21.1083 28.9094,397.7529 321.7311,11.65821 -30.1444,-391.5642 z m 365.4657,20.34565 30.304,390.69978 310.3342,11.24422 -31.4372,-384.72177 z m -4910.92852,281.49009 5.70928,492.76934 484.23443,6.6245 -8.70189,-483.30475 z m 548.47462,18.34084 9.1159,481.9755 463.2351,6.3412 -11.8471,-472.92493 z m 524.8676,17.54909 12.2321,471.65371 443.5722,6.0652 -14.7308,-462.97361 z m 502.7569,16.8082 15.0722,461.76061 425.1443,5.8182 -17.3603,-453.44366 z m 482.0119,16.11817 17.6724,452.27414 407.8348,5.5785 -19.7717,-444.29133 z m 462.5304,15.4644 20.0477,443.16554 391.5571,5.3606 -21.9727,-435.50234 z m 444.1968,14.84701 22.227,434.42723 376.2377,5.15 -23.9917,-427.05464 z m 426.9312,14.27316 24.2316,426.02317 361.7979,4.9466 -25.8371,-418.92656 z m 410.668,13.73566 26.0547,417.93141 348.1781,4.7577 -27.5293,-411.09628 z m 395.3047,13.21265 27.7257,410.14476 335.314,4.5906 -29.0838,-403.56378 z m 380.785,12.73327 29.2653,402.64129 323.1477,4.4236 -30.5078,-396.30009 z m -4571.99705,410.61689 5.78916,500.2509 487.71379,-4.4962 -8.83269,-490.503 z m 552.37525,5.9853 9.2466,489.1374 466.4094,-4.3073 -12.0287,-479.8109 z m 528.4268,5.7238 12.4064,478.5106 446.4704,-4.1258 -14.9414,-469.5763 z m 506.011,5.4841 15.2828,468.3269 427.7884,-3.9514 -17.6073,-459.7704 z m 484.9826,5.2516 17.9197,458.5718 410.2537,-3.7844 -20.0406,-450.3638 z m 465.2471,5.041 20.3311,449.2162 393.7651,-3.6319 -22.2631,-441.335 z m 446.6885,4.8449 22.5321,440.231 378.2642,-3.4938 -24.3041,-432.6622 z m 429.2192,4.6488 24.5515,431.6017 363.6496,-3.3558 -26.1711,-424.3235 z m 412.7596,4.4744 26.389,423.2993 349.8707,-3.2323 -27.8781,-416.2971 z m 397.2155,4.3001 28.0812,415.3165 336.8616,-3.1089 -29.4397,-408.5684 z m 382.5497,4.1476 29.6286,407.6242 324.5639,-2.9999 -30.8778,-401.1232 z m 358.6308,462.2763 -324.7454,3.9369 29.9991,412.7016 326.002,-10.5978 z m -372.0033,4.5108 -337.0571,4.0821 28.4374,420.5827 338.4302,-10.9972 z m -386.1236,4.6778 -350.0882,4.242 26.7304,428.7761 351.5918,-11.4258 z m -401.0651,4.8594 -363.8895,4.4163 24.8709,437.2892 365.524,-11.8834 z m -416.8925,5.0555 -378.5186,4.5907 22.8295,446.1509 380.3131,-12.3629 z m -433.6794,5.259 -394.0481,4.7722 20.6071,455.3831 396.002,-12.8713 z m -451.4968,5.4695 -410.5516,4.9756 18.1737,465.0002 412.6945,-13.416 z m -470.4333,5.702 -428.1153,5.1863 15.508,475.0386 430.4612,-13.9972 z m -490.5831,5.9417 -446.8409,5.4187 12.588,485.5129 449.405,-14.6073 z m -931.0173,11.2878 -100.1736,1.213 4.6778,256.8517 c -138.92162,13.0012 -248.28654,136.7014 -246.07235,284.9984 v 0.01 c 2.32423,155.4092 126.13767,276.5185 274.65495,269.7738 17.576,-0.7982 34.6967,-3.353 51.2164,-7.4962 115.6376,-29.0024 201.7399,-135.7575 207.1098,-261.4132 l 241.0894,-8.375 -2.5859,-103.1228 -339.4108,10.329 1.7651,85.5664 c 1.9514,94.6732 -69.9796,174.7256 -161.1452,178.4691 -91.85218,3.7717 -168.20472,-71.2502 -169.76715,-167.2322 -0.48697,-29.9168 6.3555,-58.2554 18.78396,-83.1548 v -0.01 c 2.48508,-4.9782 5.19568,-9.8171 8.11355,-14.5056 v -0.01 c 29.19117,-46.9015 79.33645,-78.5585 136.49944,-80.0968 l 82.2686,-2.2082 z m -173.55881,2.0992 -430.62835,5.2226 5.73104,495.5223 174.46678,-5.5858 c 4.22387,-37.1257 13.78921,-72.6042 27.84901,-105.5706 v -0.01 c 42.18388,-98.9046 124.89828,-175.2143 225.75577,-205.7297 z m 4562.59781,409.5346 -326.1836,11.5638 30.3766,417.8661 327.4476,-18.3917 z m -373.6519,13.2417 -338.6263,11.9997 28.7934,425.9505 340.0134,-19.089 z m -387.9322,13.7502 -351.7957,12.4645 27.0793,434.3546 353.3134,-19.8371 z m -403.0336,14.2804 -365.7635,12.9657 25.2048,443.0929 367.4126,-20.6289 z m -419.0503,14.8543 -380.5596,13.4814 23.1349,452.2016 382.3756,-21.4715 z m -436.0324,15.4499 -396.2855,14.0407 20.8901,461.6807 398.2688,-22.3649 z m -454.0685,16.0891 -412.9991,14.6363 18.4207,471.5666 415.1713,-23.3092 z m -473.2516,16.7719 -430.7954,15.2683 15.7259,481.8882 433.1778,-24.3261 z m -493.67,17.4982 -449.7682,15.9366 12.7696,492.6675 452.3759,-25.4011 z m -1370.9868,60.9207 -174.68467,6.2758 5.8255,503.3306 483.05777,-27.1224 -3.1815,-178.0697 c -39.67556,-3.5133 -77.48915,-13.9979 -112.25323,-30.3259 -17.38203,-8.1641 -34.00123,-17.7922 -49.71276,-28.7353 -78.55773,-54.7152 -134.387,-142.3972 -149.05111,-245.3531 z m 857.022,16.2416 -171.8664,6.5155 c -32.4698,139.8261 -142.5511,251.04 -281.8097,277.1464 l 3.3849,177.3869 461.194,-25.8951 z m 3990.8431,271.0231 -327.6291,19.3723 30.7544,423.1321 328.9077,-26.3671 z m -375.3154,22.1979 -340.2172,20.1131 29.1712,431.4201 341.6118,-27.3843 z m -389.7482,23.0404 -353.5316,20.9049 27.4351,440.0422 355.0569,-28.4664 z m -405.031,23.9484 -367.6521,21.7403 25.5389,449.02 369.3229,-29.6142 z m -421.2219,24.9073 -382.6299,22.6264 23.4543,458.3612 384.4605,-30.8198 z m -438.4081,25.9241 -398.5518,23.5707 21.1809,468.1017 400.5497,-32.1126 z m -456.6759,27.0064 -415.4833,24.5657 18.6895,478.2711 417.6772,-33.4856 z m -476.0988,28.1467 -433.5123,25.6337 15.9584,488.8904 435.9162,-34.9453 z m -496.7936,29.3817 -452.7463,26.7669 12.9584,499.9894 455.3903,-36.5148 z m -518.8605,30.6748 -473.2953,27.9871 9.6752,511.6039 476.1863,-38.1779 z m -542.4458,32.0765 -495.2607,29.2873 6.05794,523.7632 498.44946,-39.9575 z" style="clip-rule:evenodd;display:none;fill:url(#linearGradient193);fill-opacity:1;fill-rule:evenodd;stroke:none;stroke-width:1.018;stroke-linejoin:round;stroke-miterlimit:2" transform="matrix(0.2688885,0,0,0.2688885,367.35436,223.90506)"/><rect style="clip-rule:evenodd;display:none;fill:url(#linearGradient206);fill-opacity:1;fill-rule:evenodd;stroke:none;stroke-width:1.018;stroke-linejoin:round;stroke-miterlimit:2" id="rect205" width="5760" height="3600" x="0" y="0" transform="matrix(0.2688885,0,0,0.2688885,367.35436,223.90506)"/><path id="rect193" transform="matrix(0.2688885,0,0,0.2688885,367.35436,223.90506)" d="M -0.00312397,63.832549 429.97875,88.962934 429.03286,-0.00282645 H -0.00312397 Z M 498.63356,-0.00282645 499.71025,93.037895 977.14592,120.93775 974.96738,-0.00282645 Z m 542.86804,0 2.3614,124.84118645 457.0174,26.70862 -3.7966,-151.54980645 z m 519.2517,0 4.0258,155.29061645 437.8921,25.59001 -5.7523,-180.88062645 z m 497.1512,0 6.0214,184.46162645 419.9436,24.54404 -8.0043,-209.00566645 z m 476.4251,0 8.3033,212.43411645 403.0696,23.56344 -10.499,-235.99755645 z m 456.9725,0 10.825,239.29528645 387.2058,22.6264 -13.2136,-261.92168645 z m 438.6895,0 13.5649,265.08865645 372.2428,21.76206 -16.1116,-286.85071645 z m 421.4725,0 16.4884,289.89421645 358.144,20.93395 -19.1703,-310.82816645 z m 405.2606,0 19.5639,313.76269645 344.8225,20.1495 -22.3612,-333.91219645 z m 389.9667,0 22.7669,336.73779645 332.2344,19.41585 -25.6645,-356.15364645 z m 375.5136,0 26.0839,358.87752645 320.322,18.72583 -29.0643,-377.60335645 z m 361.8509,0 29.4956,380.22555645 309.0415,18.06481 -31.0672,-380.232807 -232.744,-18.05755945 z M 5760.0007,328.34442 V 23.370199 l -25.2559,-1.959652 z M -0.00312397,628.9862 435.89142,644.78116 430.7124,157.98262 -0.00312397,133.99691 Z m 0,573.9667 L 441.89123,1208.9962 436.63232,714.83953 -0.00312397,700.24176 Z M 5760.0007,1281.7452 V 892.83037 l -307.4795,-10.27931 30.6748,395.40664 z M -0.00312397,1785.941 447.97821,1781.8042 442.64664,1280.1223 -0.00312397,1275.3233 Z M 5760.0007,1732.7745 v -395.0347 l -272.3958,-2.9509 31.0452,400.2153 z m 0,56.8749 -236.8908,2.8688 31.4298,405.1037 205.461,-6.6774 z M -0.00312397,1859.4548 v 518.7103 L 454.16688,2363.4013 448.74816,1854.0199 Z M 5760.0007,2248.7261 l -200.9502,7.1216 31.815,410.0866 169.1352,-9.4993 z M -0.00312397,2452.8513 v 526.9959 L 460.44996,2953.9907 454.94408,2436.7283 Z M 5760.0007,2715.1422 l -164.5664,9.7298 32.2074,415.1568 132.359,-10.6123 z M -0.00312397,3055.7293 v 535.4826 L 466.82751,3553.7907 461.2417,3028.4584 Z M 5760.0007,3189.0792 l -127.7322,10.6279 31.0533,400.2953 h 96.6789 z m -476.125,410.9232 h 332.7725 l -30.5185,-396.4599 -329.0817,27.3842 z m -393.7819,0 h 345.3567 l -26.3068,-365.0952 -341.8078,28.4445 z m -408.9268,0 h 358.6584 l -22.2678,-332.5103 -355.2748,29.5561 z m -424.9711,0 h 372.744 l -18.4179,-298.6469 -369.5625,30.747 z m -441.9751,0 h 387.6815 l -14.796,-263.4181 -384.729,32.011 z m -460.0229,0 h 403.5326 l -11.4363,-226.7364 -400.8471,33.3477 z m -479.1977,0 h 420.3756 l -8.3868,-188.522 -417.9971,34.7787 z m -499.5914,0 h 438.289 l -5.6917,-148.6661 -436.2651,36.2968 z m -521.3314,0 h 457.3824 l -3.4069,-107.0741 -455.768,37.9235 z m -544.5045,0 h 477.7416 l -1.5941,-63.6082 -476.6004,39.6525 z m -288.38053,0 h 218.61023 l -0.3269,-18.1592 z M 500.50199,161.87594 l 5.62211,485.4475 480.81327,17.42563 -8.57842,-476.26619 z m 544.63211,30.32596 8.978,474.98048 460.1117,16.67022 -11.6801,-466.17691 z m 521.352,29.033 12.0577,464.94934 440.7177,15.96561 -14.5274,-456.50892 z m 499.5463,27.81997 14.8615,455.33219 422.522,15.31189 -17.1205,-447.24044 z m 479.0699,26.67228 17.4329,446.11458 405.4379,14.6872 -19.5029,-438.33514 z m 459.836,25.61181 19.7862,437.24558 389.3633,14.1134 -21.6822,-429.7858 z m 441.7344,24.59488 21.9362,428.73979 374.2332,13.55409 -23.6797,-421.54874 z m 424.6723,23.65062 23.9192,420.54636 359.96,13.04559 -25.5102,-413.63134 z m 408.5972,22.75716 25.7281,412.65796 346.4857,12.55896 -27.1879,-406.00446 z m 393.4021,21.9073 27.3913,405.06741 333.7599,12.09405 -28.7279,-398.65357 z m 379.0489,21.1083 28.9094,397.7529 321.7311,11.65821 -30.1444,-391.5642 z m 365.4657,20.34565 30.304,390.69978 310.3342,11.24422 -31.4372,-384.72177 z m -4910.92852,281.49009 5.70928,492.76934 484.23443,6.6245 -8.70189,-483.30475 z m 548.47462,18.34084 9.1159,481.9755 463.2351,6.3412 -11.8471,-472.92493 z m 524.8676,17.54909 12.2321,471.65371 443.5722,6.0652 -14.7308,-462.97361 z m 502.7569,16.8082 15.0722,461.76061 425.1443,5.8182 -17.3603,-453.44366 z m 482.0119,16.11817 17.6724,452.27414 407.8348,5.5785 -19.7717,-444.29133 z m 462.5304,15.4644 20.0477,443.16554 391.5571,5.3606 -21.9727,-435.50234 z m 444.1968,14.84701 22.227,434.42723 376.2377,5.15 -23.9917,-427.05464 z m 426.9312,14.27316 24.2316,426.02317 361.7979,4.9466 -25.8371,-418.92656 z m 410.668,13.73566 26.0547,417.93141 348.1781,4.7577 -27.5293,-411.09628 z m 395.3047,13.21265 27.7257,410.14476 335.314,4.5906 -29.0838,-403.56378 z m 380.785,12.73327 29.2653,402.64129 323.1477,4.4236 -30.5078,-396.30009 z m -4571.99705,410.61689 5.78916,500.2509 487.71379,-4.4962 -8.83269,-490.503 z m 552.37525,5.9853 9.2466,489.1374 466.4094,-4.3073 -12.0287,-479.8109 z m 528.4268,5.7238 12.4064,478.5106 446.4704,-4.1258 -14.9414,-469.5763 z m 506.011,5.4841 15.2828,468.3269 427.7884,-3.9514 -17.6073,-459.7704 z m 484.9826,5.2516 17.9197,458.5718 410.2537,-3.7844 -20.0406,-450.3638 z m 465.2471,5.041 20.3311,449.2162 393.7651,-3.6319 -22.2631,-441.335 z m 446.6885,4.8449 22.5321,440.231 378.2642,-3.4938 -24.3041,-432.6622 z m 429.2192,4.6488 24.5515,431.6017 363.6496,-3.3558 -26.1711,-424.3235 z m 412.7596,4.4744 26.389,423.2993 349.8707,-3.2323 -27.8781,-416.2971 z m 397.2155,4.3001 28.0812,415.3165 336.8616,-3.1089 -29.4397,-408.5684 z m 382.5497,4.1476 29.6286,407.6242 324.5639,-2.9999 -30.8778,-401.1232 z m 358.6308,462.2763 -324.7454,3.9369 29.9991,412.7016 326.002,-10.5978 z m -372.0033,4.5108 -337.0571,4.0821 28.4374,420.5827 338.4302,-10.9972 z m -386.1236,4.6778 -350.0882,4.242 26.7304,428.7761 351.5918,-11.4258 z m -401.0651,4.8594 -363.8895,4.4163 24.8709,437.2892 365.524,-11.8834 z m -416.8925,5.0555 -378.5186,4.5907 22.8295,446.1509 380.3131,-12.3629 z m -433.6794,5.259 -394.0481,4.7722 20.6071,455.3831 396.002,-12.8713 z m -451.4968,5.4695 -410.5516,4.9756 18.1737,465.0002 412.6945,-13.416 z m -470.4333,5.702 -428.1153,5.1863 15.508,475.0386 430.4612,-13.9972 z m -490.5831,5.9417 -446.8409,5.4187 12.588,485.5129 449.405,-14.6073 z m -931.0173,11.2878 -100.1736,1.213 4.6778,256.8517 c -138.92162,13.0012 -248.28654,136.7014 -246.07235,284.9984 v 0.01 c 2.32423,155.4092 126.13767,276.5185 274.65495,269.7738 17.576,-0.7982 34.6967,-3.353 51.2164,-7.4962 115.6376,-29.0024 201.7399,-135.7575 207.1098,-261.4132 l 241.0894,-8.375 -2.5859,-103.1228 -339.4108,10.329 1.7651,85.5664 c 1.9514,94.6732 -69.9796,174.7256 -161.1452,178.4691 -91.85218,3.7717 -168.20472,-71.2502 -169.76715,-167.2322 -0.48697,-29.9168 6.3555,-58.2554 18.78396,-83.1548 v -0.01 c 2.48508,-4.9782 5.19568,-9.8171 8.11355,-14.5056 v -0.01 c 29.19117,-46.9015 79.33645,-78.5585 136.49944,-80.0968 l 82.2686,-2.2082 z m -173.55881,2.0992 -430.62835,5.2226 5.73104,495.5223 174.46678,-5.5858 c 4.22387,-37.1257 13.78921,-72.6042 27.84901,-105.5706 v -0.01 c 42.18388,-98.9046 124.89828,-175.2143 225.75577,-205.7297 z m 4562.59781,409.5346 -326.1836,11.5638 30.3766,417.8661 327.4476,-18.3917 z m -373.6519,13.2417 -338.6263,11.9997 28.7934,425.9505 340.0134,-19.089 z m -387.9322,13.7502 -351.7957,12.4645 27.0793,434.3546 353.3134,-19.8371 z m -403.0336,14.2804 -365.7635,12.9657 25.2048,443.0929 367.4126,-20.6289 z m -419.0503,14.8543 -380.5596,13.4814 23.1349,452.2016 382.3756,-21.4715 z m -436.0324,15.4499 -396.2855,14.0407 20.8901,461.6807 398.2688,-22.3649 z m -454.0685,16.0891 -412.9991,14.6363 18.4207,471.5666 415.1713,-23.3092 z m -473.2516,16.7719 -430.7954,15.2683 15.7259,481.8882 433.1778,-24.3261 z m -493.67,17.4982 -449.7682,15.9366 12.7696,492.6675 452.3759,-25.4011 z m -1370.9868,60.9207 -174.68467,6.2758 5.8255,503.3306 483.05777,-27.1224 -3.1815,-178.0697 c -39.67556,-3.5133 -77.48915,-13.9979 -112.25323,-30.3259 -17.38203,-8.1641 -34.00123,-17.7922 -49.71276,-28.7353 -78.55773,-54.7152 -134.387,-142.3972 -149.05111,-245.3531 z m 857.022,16.2416 -171.8664,6.5155 c -32.4698,139.8261 -142.5511,251.04 -281.8097,277.1464 l 3.3849,177.3869 461.194,-25.8951 z m 3990.8431,271.0231 -327.6291,19.3723 30.7544,423.1321 328.9077,-26.3671 z m -375.3154,22.1979 -340.2172,20.1131 29.1712,431.4201 341.6118,-27.3843 z m -389.7482,23.0404 -353.5316,20.9049 27.4351,440.0422 355.0569,-28.4664 z m -405.031,23.9484 -367.6521,21.7403 25.5389,449.02 369.3229,-29.6142 z m -421.2219,24.9073 -382.6299,22.6264 23.4543,458.3612 384.4605,-30.8198 z m -438.4081,25.9241 -398.5518,23.5707 21.1809,468.1017 400.5497,-32.1126 z m -456.6759,27.0064 -415.4833,24.5657 18.6895,478.2711 417.6772,-33.4856 z m -476.0988,28.1467 -433.5123,25.6337 15.9584,488.8904 435.9162,-34.9453 z m -496.7936,29.3817 -452.7463,26.7669 12.9584,499.9894 455.3903,-36.5148 z m -518.8605,30.6748 -473.2953,27.9871 9.6752,511.6039 476.1863,-38.1779 z m -542.4458,32.0765 -495.2607,29.2873 6.05794,523.7632 498.44946,-39.9575 z" style="clip-rule:evenodd;display:none;fill:url(#linearGradient194);fill-opacity:1;fill-rule:evenodd;stroke:none;stroke-width:1.018;stroke-linejoin:round;stroke-miterlimit:2"/></g>
        </g>
</svg>